<?xml version="1.0" standalone="no"?>
<!DOCTYPE svg PUBLIC "-//W3C//DTD SVG 20010904//EN"
 "http://www.w3.org/TR/2001/REC-SVG-20010904/DTD/svg10.dtd">
<svg version="1.0" xmlns="http://www.w3.org/2000/svg"
 width="1516.000000pt" height="1516.000000pt" viewBox="0 0 1516.000000 1516.000000"
 preserveAspectRatio="xMidYMid meet">
<metadata>
Created by potrace 1.14, written by Peter Selinger 2001-2017
</metadata>
<g transform="translate(0.000000,1516.000000) scale(0.100000,-0.100000)"
fill="#000000" stroke="none">
<path d="M1677 9644 c-1 -1 -38 -5 -82 -8 -439 -34 -806 -235 -949 -519 -58
-116 -77 -195 -81 -337 -4 -142 6 -222 41 -330 88 -266 311 -443 687 -545 53
-14 107 -28 120 -31 59 -12 258 -44 302 -49 428 -49 642 -142 724 -315 36 -76
36 -206 1 -295 -43 -109 -167 -209 -322 -260 -79 -26 -237 -45 -363 -44 -268
2 -504 81 -660 222 -69 63 -145 161 -170 221 -15 35 -32 44 -50 27 -6 -4 -89
-49 -185 -98 -96 -50 -196 -102 -222 -116 l-46 -24 49 -99 c139 -281 378 -482
683 -573 75 -23 77 -24 191 -45 139 -26 155 -27 370 -31 142 -2 242 1 310 11
661 91 1018 430 1019 964 0 374 -150 623 -474 785 -66 33 -269 106 -332 119
-13 3 -81 16 -153 30 -128 24 -170 30 -270 41 -93 11 -280 46 -355 67 -272 75
-382 231 -307 438 68 189 302 295 627 285 69 -2 139 -6 155 -10 133 -27 246
-70 347 -131 59 -36 162 -129 191 -172 l15 -24 231 118 230 119 -31 55 c-174
313 -514 506 -963 546 -70 6 -273 12 -278 8z"/>
<path d="M6945 8693 c-25 -3 -145 -26 -195 -38 -37 -8 -121 -40 -187 -70 -320
-147 -543 -459 -591 -830 -14 -104 -4 -446 14 -476 2 -3 5 -19 8 -36 10 -55
56 -183 90 -251 165 -325 472 -522 886 -570 77 -9 302 -8 355 1 17 3 64 11
105 17 150 25 366 109 487 191 68 46 153 119 153 131 0 6 -75 84 -167 173
l-166 164 -44 -34 c-83 -63 -220 -119 -368 -151 -53 -11 -268 -13 -325 -2
-194 35 -357 137 -429 270 -21 38 -61 150 -61 171 0 4 380 7 844 7 l844 0 5
33 c8 53 6 297 -4 367 -22 157 -30 194 -65 291 -128 356 -382 559 -794 634
-40 8 -350 14 -395 8z m333 -479 c153 -26 297 -124 355 -240 28 -56 59 -162
49 -168 -4 -2 -266 -3 -582 -2 -569 1 -575 1 -572 21 14 77 101 205 188 275
128 103 357 150 562 114z"/>
<path d="M9477 8694 c-1 -1 -38 -5 -82 -8 -188 -16 -392 -87 -550 -191 -116
-77 -240 -216 -308 -347 -100 -189 -137 -368 -132 -633 5 -270 62 -470 189
-655 156 -230 441 -399 731 -435 28 -4 61 -8 75 -11 39 -7 250 -6 305 1 252
34 454 128 642 300 l36 33 -179 175 -179 175 -55 -42 c-65 -50 -142 -88 -225
-112 -65 -19 -244 -25 -325 -11 -255 42 -442 241 -477 507 -34 261 64 510 251
640 42 28 125 70 151 76 6 1 37 9 70 17 176 41 370 -1 529 -116 l50 -36 110
116 c222 232 226 237 214 251 -25 30 -163 134 -228 172 -110 64 -239 108 -373
125 -47 7 -235 14 -240 9z"/>
<path d="M11367 8694 c-1 -1 -39 -4 -84 -8 -248 -19 -473 -108 -609 -240 -129
-126 -175 -232 -180 -411 -5 -186 40 -302 165 -425 62 -62 95 -85 181 -128
147 -72 345 -120 565 -137 242 -18 356 -59 399 -145 20 -42 15 -137 -10 -175
-100 -157 -327 -202 -625 -125 -172 44 -416 172 -476 250 -6 8 -13 13 -16 10
-10 -11 -238 -344 -249 -363 -9 -17 -4 -26 33 -62 251 -238 537 -340 949 -339
240 1 383 31 554 114 258 126 400 364 383 640 -8 114 -11 134 -39 208 -66 179
-223 308 -458 375 -47 14 -101 28 -120 31 -19 3 -44 7 -55 10 -31 6 -187 22
-310 31 -210 16 -345 102 -347 221 -3 95 52 157 171 196 95 30 302 34 425 7
103 -22 232 -81 294 -135 24 -20 47 -33 51 -28 5 5 63 74 131 154 68 80 132
155 143 167 l19 21 -64 51 c-115 93 -314 182 -458 206 -25 4 -54 9 -65 11 -32
7 -292 22 -298 18z"/>
<path d="M4460 8661 c-205 -44 -378 -147 -494 -294 -26 -32 -26 -32 -27 -7 -1
14 -3 34 -4 45 -2 11 -6 47 -10 80 -5 33 -9 69 -11 80 -1 11 -3 30 -3 43 l-1
22 -250 0 -250 0 -1 -37 c0 -49 0 -3005 0 -3015 1 -5 120 -8 266 -8 205 0 265
3 266 13 0 6 0 264 0 572 l1 560 71 -70 c116 -113 265 -180 470 -211 119 -18
322 -14 432 10 444 94 747 426 822 901 15 94 9 363 -11 455 -60 284 -217 536
-424 676 -32 21 -59 41 -62 44 -3 3 -43 24 -90 47 -78 37 -179 72 -255 87 -16
4 -41 9 -55 12 -14 3 -86 7 -160 9 -103 3 -155 0 -220 -14z m302 -517 c154
-35 307 -149 375 -279 72 -138 95 -321 58 -470 -52 -212 -223 -385 -432 -439
-70 -18 -237 -18 -312 0 -323 75 -511 386 -445 735 35 183 148 329 324 417 93
47 306 65 432 36z"/>
<path d="M12410 8626 c0 -2 59 -150 131 -328 311 -763 402 -988 503 -1238 59
-146 113 -278 121 -295 7 -16 34 -81 59 -143 l46 -113 -41 -97 c-23 -53 -47
-110 -54 -127 -45 -100 -305 -706 -305 -710 0 -3 132 -5 293 -5 l292 0 19 43
c10 23 54 125 98 227 43 101 85 198 93 215 59 131 185 431 185 442 0 7 -4 13
-9 13 -25 0 -146 139 -156 180 -1 3 -7 18 -13 33 -22 52 -25 147 -8 222 9 38
21 72 27 76 6 3 11 13 13 22 3 22 76 106 98 113 10 3 16 9 14 13 -4 6 77 49
107 57 4 1 8 2 10 4 17 14 199 19 208 6 17 -23 41 17 124 210 48 115 99 232
111 259 46 100 394 913 394 919 0 3 -132 6 -294 6 l-294 0 -32 -77 c-17 -43
-37 -91 -45 -108 -74 -166 -337 -813 -421 -1036 -58 -156 -110 -291 -115 -299
-7 -13 -8 -13 -13 0 -44 137 -224 663 -284 835 -127 359 -230 651 -237 668 -7
16 -31 17 -316 17 -170 0 -309 -2 -309 -4z"/>
<path d="M13980 7204 c-122 -44 -202 -112 -248 -212 -23 -49 -27 -71 -27 -152
0 -82 4 -103 27 -152 46 -98 136 -178 232 -206 45 -13 159 -10 205 6 87 29
166 95 207 174 52 98 56 242 8 344 -28 61 -131 156 -195 180 -53 20 -174 30
-209 18z"/>
</g>
</svg>
