<svg version="1.1" id="Layer_1" xmlns="http://www.w3.org/2000/svg" xmlns:xlink="http://www.w3.org/1999/xlink" x="0px" y="0px"
	 width="100%" viewBox="0 0 1516 473" enable-background="new 0 0 1516 473" xml:space="preserve">
<path fill="#FFFFFF" opacity="1.000000" stroke="none" 
	d="
M1506.007080,474.000000 
	C1004.005005,474.000000 502.505646,474.000000 1.004709,474.000000 
	C1.003139,316.335632 1.003139,158.671249 1.001570,1.005152 
	C506.330414,1.003435 1011.660828,1.003435 1516.993408,1.001717 
	C1516.995605,158.663544 1516.995605,316.327087 1516.997803,473.995300 
	C1513.503174,474.000000 1510.006470,474.000000 1506.007080,474.000000 
M1425.091919,278.348053 
	C1419.105835,275.121490 1412.754883,273.796600 1405.923096,273.950592 
	C1388.712402,274.338654 1374.120117,286.261505 1371.411621,303.364044 
	C1368.439697,322.130585 1376.017456,338.455414 1392.736450,345.445099 
	C1413.907104,354.295837 1436.569702,342.569153 1442.123413,320.310150 
	C1446.192261,304.002106 1440.263794,288.964386 1425.091919,278.348053 
z"/>
<path fill="#FF6363" opacity="1.000000" stroke="none" 
	d="
M1425.409668,278.534546 
	C1440.263794,288.964386 1446.192261,304.002106 1442.123413,320.310150 
	C1436.569702,342.569153 1413.907104,354.295837 1392.736450,345.445099 
	C1376.017456,338.455414 1368.439697,322.130585 1371.411621,303.364044 
	C1374.120117,286.261505 1388.712402,274.338654 1405.923096,273.950592 
	C1412.754883,273.796600 1419.105835,275.121490 1425.409668,278.534546 
z"/>
</svg>